<?xml version="1.0" encoding="utf-8"?>
<!-- Generator: Adobe Illustrator 24.0.0, SVG Export Plug-In . SVG Version: 6.00 Build 0)  -->
<svg version="1.1" xmlns="http://www.w3.org/2000/svg" xmlns:xlink="http://www.w3.org/1999/xlink" x="0px" y="0px"
	 viewBox="0 0 64 64" enable-background="new 0 0 64 64" xml:space="preserve">
<g id="Captions">
</g>
<g id="Icons">
	<g>
		<g>
			<path fill="#F0F0F0" d="M54.623,29.559L50,32.333l-7.146-4.287C39.86,26.249,38,22.963,38,19.471v-3.852
				C36.234,14.595,34.188,14,32,14c-6.627,0-12,5.373-12,12v2h-5C8.925,28,4,32.925,4,39c0,5.738,4.394,10.444,10,10.95V47
				c0-1.654,1.346-3,3-3h30c1.654,0,3,1.346,3,3v2.95c5.606-0.506,10-5.212,10-10.95C60,34.982,57.839,31.478,54.623,29.559z"/>
		</g>
		<g>
			<path fill="#D2D2D2" d="M24,26c0-5.944,4.327-10.866,10-11.82C33.348,14.07,32.683,14,32,14c-6.627,0-12,5.373-12,12v2h4V26z"/>
		</g>
		<g>
			<path fill="#D2D2D2" d="M14,48.791c-3.56-1.82-6-5.518-6-9.791c0-6.075,4.925-11,11-11h-4C8.925,28,4,32.925,4,39
				c0,5.738,4.394,10.444,10,10.95V48.791z"/>
		</g>
		<g>
			<path fill="#3CC8B4" d="M40,6h4.111c1.242,0,2.467-0.289,3.578-0.845L50,4l2.311,1.155C53.422,5.711,54.647,6,55.889,6H60v13.47
				c0,2.81-1.474,5.414-3.884,6.86L50,30l-6.116-3.67C41.474,24.885,40,22.281,40,19.47V6z"/>
		</g>
		<g>
			<path fill="#1EAA96" d="M45.884,26.33C43.474,24.885,42,22.281,42,19.47V6h-2v13.47c0,2.81,1.474,5.414,3.884,6.86L50,30l1-0.6
				L45.884,26.33z"/>
		</g>
		<g>
			<path fill="#FAB400" d="M54,24h-8c-1.105,0-2-0.895-2-2v-6c0-1.105,0.895-2,2-2h8c1.105,0,2,0.895,2,2v6
				C56,23.105,55.105,24,54,24z"/>
		</g>
		<g>
			<path fill="#DC9600" d="M46,22v-6c0-1.105,0.895-2,2-2h-2c-1.105,0-2,0.895-2,2v6c0,1.105,0.895,2,2,2h2
				C46.895,24,46,23.105,46,22z"/>
		</g>
		<g>
			<path fill="#505050" d="M47,14v-3c0-1.105,0.895-2,2-2h2c1.105,0,2,0.895,2,2v3h1v-3c0-1.657-1.343-3-3-3h-2
				c-1.657,0-3,1.343-3,3v3H47z"/>
		</g>
		<g>
			<path fill="#BE7800" d="M52,18c0-1.105-0.895-2-2-2s-2,0.895-2,2c0,0.738,0.405,1.376,1,1.723V21c0,0.552,0.448,1,1,1
				s1-0.448,1-1v-1.277C51.595,19.376,52,18.738,52,18z"/>
		</g>
		<g>
			<rect x="18" y="52" fill="#288CB4" width="28" height="2"/>
		</g>
		<g>
			<path fill="#64C8F0" d="M47,60H17c-0.552,0-1-0.448-1-1v-4c0-0.552,0.448-1,1-1h30c0.552,0,1,0.448,1,1v4
				C48,59.552,47.552,60,47,60z"/>
		</g>
		<g>
			<path fill="#288CB4" d="M34,58L34,58c0.552,0,1-0.448,1-1l0,0c0-0.552-0.448-1-1-1l0,0c-0.552,0-1,0.448-1,1l0,0
				C33,57.552,33.448,58,34,58z"/>
		</g>
		<g>
			<path fill="#288CB4" d="M38,58L38,58c0.552,0,1-0.448,1-1l0,0c0-0.552-0.448-1-1-1l0,0c-0.552,0-1,0.448-1,1l0,0
				C37,57.552,37.448,58,38,58z"/>
		</g>
		<g>
			<path fill="#288CB4" d="M30,58L30,58c0.552,0,1-0.448,1-1l0,0c0-0.552-0.448-1-1-1h0c-0.552,0-1,0.448-1,1l0,0
				C29,57.552,29.448,58,30,58z"/>
		</g>
		<g>
			<path fill="#FA6450" d="M26,58L26,58c0.552,0,1-0.448,1-1l0,0c0-0.552-0.448-1-1-1h0c-0.552,0-1,0.448-1,1l0,0
				C25,57.552,25.448,58,26,58z"/>
		</g>
		<g>
			<path fill="#64C8F0" d="M47,52H17c-0.552,0-1-0.448-1-1v-4c0-0.552,0.448-1,1-1h30c0.552,0,1,0.448,1,1v4
				C48,51.552,47.552,52,47,52z"/>
		</g>
		<g>
			<path fill="#46AAD2" d="M20,51v-4c0-0.552,0.448-1,1-1h-4c-0.552,0-1,0.448-1,1v4c0,0.552,0.448,1,1,1h4
				C20.448,52,20,51.552,20,51z"/>
		</g>
		<g>
			<path fill="#46AAD2" d="M20,59v-4c0-0.552,0.448-1,1-1h-4c-0.552,0-1,0.448-1,1v4c0,0.552,0.448,1,1,1h4
				C20.448,60,20,59.552,20,59z"/>
		</g>
		<g>
			<path fill="#288CB4" d="M34,50L34,50c0.552,0,1-0.448,1-1l0,0c0-0.552-0.448-1-1-1l0,0c-0.552,0-1,0.448-1,1l0,0
				C33,49.552,33.448,50,34,50z"/>
		</g>
		<g>
			<path fill="#288CB4" d="M38,50L38,50c0.552,0,1-0.448,1-1l0,0c0-0.552-0.448-1-1-1l0,0c-0.552,0-1,0.448-1,1l0,0
				C37,49.552,37.448,50,38,50z"/>
		</g>
		<g>
			<path fill="#288CB4" d="M30,50L30,50c0.552,0,1-0.448,1-1l0,0c0-0.552-0.448-1-1-1h0c-0.552,0-1,0.448-1,1l0,0
				C29,49.552,29.448,50,30,50z"/>
		</g>
		<g>
			<path fill="#FA6450" d="M26,50L26,50c0.552,0,1-0.448,1-1l0,0c0-0.552-0.448-1-1-1h0c-0.552,0-1,0.448-1,1l0,0
				C25,49.552,25.448,50,26,50z"/>
		</g>
	</g>
</g>
</svg>
